<svg width="18" height="18" viewBox="0 0 18 18" fill="none" xmlns="http://www.w3.org/2000/svg">
<path d="M8.98007 16.4262C13.0726 16.4262 16.3903 13.1085 16.3903 9.01596C16.3903 4.92339 13.0726 1.60571 8.98007 1.60571C4.8875 1.60571 1.56982 4.92339 1.56982 9.01596C1.56982 13.1085 4.8875 16.4262 8.98007 16.4262Z" fill="#5E60CE"/>
<path d="M8.96428 1.85959C10.3765 1.85959 11.7571 2.27837 12.9313 3.06298C14.1056 3.84758 15.0208 4.96278 15.5612 6.26753C16.1017 7.57229 16.2431 9.008 15.9676 10.3931C15.6921 11.7782 15.012 13.0506 14.0134 14.0492C13.0148 15.0478 11.7424 15.7279 10.3573 16.0034C8.9722 16.2789 7.53648 16.1375 6.23173 15.597C4.92697 15.0566 3.81178 14.1414 3.02717 12.9671C2.24257 11.7929 1.82378 10.4123 1.82378 9.00008C1.8311 7.10855 2.58574 5.29659 3.92326 3.95907C5.26079 2.62155 7.07275 1.8669 8.96428 1.85959ZM8.96428 0.272809C7.23972 0.279864 5.55592 0.7977 4.12543 1.76094C2.69494 2.72419 1.58191 4.08965 0.926831 5.68496C0.271755 7.28027 0.104012 9.0339 0.444777 10.7245C0.785541 12.415 1.61954 13.9667 2.84148 15.1837C4.06342 16.4007 5.61852 17.2283 7.31046 17.5622C9.00241 17.896 10.7553 17.7211 12.348 17.0596C13.9406 16.398 15.3015 15.2794 16.2589 13.845C17.2163 12.4106 17.7272 10.7246 17.7273 9.00008C17.7273 7.85099 17.5003 6.71321 17.0595 5.65203C16.6187 4.59086 15.9727 3.62718 15.1585 2.81631C14.3443 2.00544 13.378 1.36334 12.315 0.926857C11.2521 0.490376 10.1134 0.268108 8.96428 0.272809Z" fill="#5E60CE"/>
<path d="M12.4306 6.34215L8.09865 10.6741L5.61618 8.19162L4.78027 9.02753L8.09865 12.3459L13.2665 7.17806L12.4306 6.34215Z" fill="#F2F2F2"/>
</svg>
